nColumns=19
nRows=112
DataType=double
version=3
OpenSimVersion=4.1
endheader
time	ground_force_1_vx	ground_force_1_vy	ground_force_1_vz	ground_force_1_px	ground_force_1_py	ground_force_1_pz	ground_force_1_mx	ground_force_1_my	ground_force_1_mz	ground_force_2_vx	ground_force_2_vy	ground_force_2_vz	ground_force_2_px	ground_force_2_py	ground_force_2_pz	ground_force_2_mx	ground_force_2_my	ground_force_2_mz
0	-16.1761	70.4297	5.79867	0.0706502	0.006	-0.218912	0	0.276427	0	0	0	0	0.670397	0	-0.267365	0	0	0
0.01	-22.924	99.8809	6.19517	0.0784002	0.006	-0.217487	0	0.223851	0	0	0	0	0.670397	0	-0.267365	0	0	0
0.02	-30.8585	134.071	6.29378	0.0853012	0.006	-0.216162	0	0.179173	0	0	0	0	0.670397	0	-0.267365	0	0	0
0.03	-39.9132	172.53	5.96477	0.0908892	0.006	-0.21503	0	0.141393	0	0	0	0	0.670397	0	-0.267365	0	0	0
0.04	-49.9395	214.57	5.07796	0.0957492	0.006	-0.213985	0	0.112318	0	0	0	0	0.670397	0	-0.267365	0	0	0
0.05	-60.6898	259.428	3.53438	0.10018	0.006	-0.212967	0	0.094692	0	0	0	0	0.670397	0	-0.267365	0	0	0
0.06	-71.8503	306.29	1.27607	0.104337	0.006	-0.211947	0	0.090381	0	0	0	0	0.670397	0	-0.267365	0	0	0
0.07	-83.0724	354.275	-1.70277	0.108291	0.006	-0.21092	0	0.099825	0	0	0	0	0.670397	0	-0.267365	0	0	0
0.08	-93.9834	402.425	-5.33884	0.112067	0.006	-0.209893	0	0.12365	0	0	0	0	0.670397	0	-0.267365	0	0	0
0.09	-104.201	449.689	-9.49503	0.115658	0.006	-0.208885	0	0.164571	0	0	0	0	0.670397	0	-0.267365	0	0	0
0.1	-113.353	494.948	-13.9652	0.119044	0.006	-0.207918	0	0.226917	0	0	0	0	0.670397	0	-0.267365	0	0	0
0.11	-121.101	537.132	-18.5102	0.122199	0.006	-0.207014	0	0.312698	0	0	0	0	0.670397	0	-0.267365	0	0	0
0.12	-127.178	575.338	-22.9077	0.125106	0.006	-0.206184	0	0.418468	0	0	0	0	0.670397	0	-0.267365	0	0	0
0.13	-131.399	608.857	-26.9645	0.12776	0.006	-0.205435	0	0.537297	0	0	0	0	0.670397	0	-0.267365	0	0	0
0.14	-133.674	637.133	-30.5178	0.130164	0.006	-0.204768	0	0.66101	0	0	0	0	0.670397	0	-0.267365	0	0	0
0.15	-134.001	659.75	-33.4533	0.13233	0.006	-0.204177	0	0.780164	0	0	0	0	0.670397	0	-0.267365	0	0	0
0.16	-132.454	676.43	-35.7164	0.134279	0.006	-0.203652	0	0.884712	0	0	0	0	0.670397	0	-0.267365	0	0	0
0.17	-129.181	687.04	-37.3048	0.136041	0.006	-0.203178	0	0.965785	0	0	0	0	0.670397	0	-0.267365	0	0	0
0.18	-124.382	691.61	-38.2582	0.137651	0.006	-0.202735	0	1.01668	0	0	0	0	0.670397	0	-0.267365	0	0	0
0.19	-118.302	690.358	-38.6491	0.13915	0.006	-0.202304	0	1.03307	0	0	0	0	0.670397	0	-0.267365	0	0	0
0.2	-111.212	683.698	-38.5674	0.140582	0.006	-0.201863	0	1.01327	0	0	0	0	0.670397	0	-0.267365	0	0	0
0.21	-103.394	672.229	-38.1067	0.141994	0.006	-0.201391	0	0.958147	0	0	0	0	0.670397	0	-0.267365	0	0	0
0.22	-95.1223	656.709	-37.3552	0.143432	0.006	-0.200869	0	0.870555	0	0	0	0	0.670397	0	-0.267365	0	0	0
0.23	-86.6508	638.004	-36.3912	0.144943	0.006	-0.200279	0	0.754783	0	0	0	0	0.670397	0	-0.267365	0	0	0
0.24	-78.1998	617.042	-35.2809	0.146567	0.006	-0.199608	0	0.616028	0	0	0	0	0.670397	0	-0.267365	0	0	0
0.25	-69.9533	594.76	-34.0803	0.148343	0.006	-0.198847	0	0.459662	0	0	0	0	0.670397	0	-0.267365	0	0	0
0.26	-62.0559	572.066	-32.8381	0.150301	0.006	-0.197994	0	0.290621	0	0	0	0	0.670397	0	-0.267365	0	0	0
0.27	-54.6148	549.804	-31.5987	0.152466	0.006	-0.197049	0	0.112939	0	0	0	0	0.670397	0	-0.267365	0	0	0
0.28	-47.7028	528.735	-30.4025	0.154855	0.006	-0.196019	0	-0.070542	0	0	0	0	0.670397	0	-0.267365	0	0	0
0.29	-41.3614	509.51	-29.2864	0.15748	0.006	-0.194921	0	-0.258107	0	0	0	0	0.670397	0	-0.267365	0	0	0
0.3	-35.6049	492.673	-28.284	0.160344	0.006	-0.193775	0	-0.449064	0	0	0	0	0.670397	0	-0.267365	0	0	0
0.31	-30.4244	478.649	-27.4235	0.163443	0.006	-0.192608	0	-0.643559	0	0	0	0	0.670397	0	-0.267365	0	0	0
0.32	-25.7926	467.749	-26.7274	0.166763	0.006	-0.191451	0	-0.84235	0	0	0	0	0.670397	0	-0.267365	0	0	0
0.33	-21.6637	460.169	-26.2117	0.170285	0.006	-0.190336	0	-1.04658	0	0	0	0	0.670397	0	-0.267365	0	0	0
0.34	-17.9749	455.99	-25.886	0.173983	0.006	-0.189294	0	-1.25761	0	0	0	0	0.670397	0	-0.267365	0	0	0
0.35	-14.6479	455.19	-25.7552	0.177823	0.006	-0.188346	0	-1.47672	0	0	0	0	0.670397	0	-0.267365	0	0	0
0.36	-11.5913	457.656	-25.821	0.181774	0.006	-0.187507	0	-1.70488	0	0	0	0	0.670397	0	-0.267365	0	0	0
0.37	-8.70717	463.202	-26.0857	0.185805	0.006	-0.186779	0	-1.94243	0	0	0	0	0.670397	0	-0.267365	0	0	0
0.38	-5.89505	471.581	-26.5533	0.18989	0.006	-0.186156	0	-2.18861	0	0	0	0	0.670397	0	-0.267365	0	0	0
0.39	-3.05731	482.502	-27.2297	0.194014	0.006	-0.185622	0	-2.44121	0	0	0	0	0.670397	0	-0.267365	0	0	0
0.4	-0.104385	495.639	-28.1206	0.198166	0.006	-0.185157	0	-2.69657	0	0	0	0	0.670397	0	-0.267365	0	0	0
0.41	3.04087	510.64	-29.229	0.202345	0.006	-0.184739	0	-2.94961	0	0	0	0	0.670397	0	-0.267365	0	0	0
0.42	6.44059	527.128	-30.5502	0.206551	0.006	-0.184349	0	-3.19409	0	0	0	0	0.670397	0	-0.267365	0	0	0
0.43	10.141	544.714	-32.0685	0.210787	0.006	-0.183971	0	-3.42303	0	0	0	0	0.670397	0	-0.267365	0	0	0
0.44	14.1729	562.996	-33.7529	0.215056	0.006	-0.183597	0	-3.62928	0	0	0	0	0.670397	0	-0.267365	0	0	0
0.45	18.5532	581.563	-35.5545	0.219355	0.006	-0.183222	0	-3.80622	0	0	0	0	0.670397	0	-0.267365	0	0	0
0.46	23.2878	600	-37.4084	0.223679	0.006	-0.182844	0	-3.94832	0	0	0	0	0.670397	0	-0.267365	0	0	0
0.47	28.3724	617.883	-39.2377	0.228014	0.006	-0.182467	0	-4.05192	0	0	0	0	0.670397	0	-0.267365	0	0	0
0.48	33.7912	634.781	-40.9587	0.232343	0.006	-0.182095	0	-4.11555	0	0	0	0	0.670397	0	-0.267365	0	0	0
0.49	39.5172	650.263	-42.4865	0.236647	0.006	-0.181733	0	-4.1399	0	0	0	0	0.670397	0	-0.267365	0	0	0
0.5	45.5129	663.906	-43.7424	0.240901	0.006	-0.181386	0	-4.1273	0	0	0	0	0.670397	0	-0.267365	0	0	0
0.51	51.7322	675.29	-44.6584	0.245081	0.006	-0.181058	0	-4.08116	0	0	0	0	0.670397	0	-0.267365	0	0	0
0.52	58.1218	684.011	-45.1802	0.24916	0.006	-0.180751	0	-4.0055	0	0	0	0	0.670397	0	-0.267365	0	0	0
0.53	64.6217	689.67	-45.2692	0.253112	0.006	-0.180467	0	-3.90435	0	0	0	0	0.670397	0	-0.267365	0	0	0
0.54	71.1571	691.869	-44.9038	0.256914	0.006	-0.180207	0	-3.78123	0	0	0	0	0.670397	0	-0.267365	0	0	0
0.55	77.6268	690.213	-44.0794	0.260548	0.006	-0.179969	0	-3.63891	0	1.58761	22.6754	-5.11076	0.670397	0.006	-0.267365	0	0.314408	0
0.56	83.896	684.311	-42.8064	0.264005	0.006	-0.179753	0	-3.47935	0	-0.0524223	38.4065	-5.69508	0.712859	0.006	-0.285079	0	0.429958	0
0.57	89.795	673.807	-41.1086	0.267285	0.006	-0.179555	0	-3.30365	0	-2.49625	57.7568	-6.22106	0.735597	0.006	-0.294014	0	0.497198	0
0.58	95.1249	658.402	-39.0205	0.270397	0.006	-0.179373	0	-3.11231	0	-5.90254	80.8124	-6.62384	0.750315	0.006	-0.299386	0	0.54375	0
0.59	99.6663	637.898	-36.5853	0.273356	0.006	-0.179204	0	-2.9057	0	-10.4159	107.466	-6.82308	0.761092	0.006	-0.303004	0	0.577719	0
0.6	103.191	612.23	-33.853	0.276184	0.006	-0.179044	0	-2.68477	0	-16.0937	137.504	-6.73384	0.769703	0.006	-0.305661	0	0.601162	0
0.61	105.475	581.493	-30.8811	0.278903	0.006	-0.178891	0	-2.45138	0	-22.8745	170.677	-6.27007	0.777002	0.006	-0.307758	0	0.613535	0
0.62	106.318	545.964	-27.7343	0.28154	0.006	-0.17874	0	-2.20824	0	-30.6076	206.662	-5.35296	0.78342	0.006	-0.309512	0	0.613233	0
0.63	105.559	506.107	-24.4842	0.284122	0.006	-0.178586	0	-1.95872	0	-39.0567	245.009	-3.9254	0.789178	0.006	-0.311041	0	0.598421	0
0.64	103.092	462.579	-21.2085	0.286681	0.006	-0.178424	0	-1.70683	0	-47.9071	285.101	-1.96166	0.79439	0.006	-0.312414	0	0.566855	0
0.65	98.8834	416.226	-17.9871	0.289253	0.006	-0.178243	0	-1.45707	0	-56.7926	326.141	0.516667	0.799119	0.006	-0.313673	0	0.515223	0
0.66	92.9988	368.069	-14.8987	0.291881	0.006	-0.178033	0	-1.21427	0	-65.3429	367.226	3.43181	0.803419	0.006	-0.314841	0	0.439387	0
0.67	85.6083	319.267	-12.0179	0.294619	0.006	-0.177782	0	-0.983318	0	-73.2356	407.47	6.6701	0.807347	0.006	-0.315936	0	0.336695	0
0.68	76.9974	271.058	-9.40716	0.297538	0.006	-0.177471	0	-0.768743	0	-80.2171	446.097	10.1099	0.810964	0.006	-0.316971	0	0.207888	0
0.69	67.5477	224.663	-7.1094	0.300733	0.006	-0.177076	0	-0.574179	0	-86.1058	482.468	13.6316	0.81433	0.006	-0.317963	0	0.056538	0
0.7	57.7002	181.194	-5.14319	0.304352	0.006	-0.176562	0	-0.402104	0	-90.788	516.058	17.1199	0.817502	0.006	-0.318923	0	-0.111934	0
0.71	47.9038	141.558	-3.503	0.308633	0.006	-0.175867	0	-0.253862	0	-94.2107	546.421	20.4732	0.820534	0.006	-0.319864	0	-0.290437	0
0.72	38.5598	106.394	-2.16718	0.314009	0.006	-0.174881	0	-0.129294	0	-96.369	573.158	23.6048	0.823473	0.006	-0.320796	0	-0.471046	0
0.73	29.9816	76.0571	-1.10737	0.32134	0.006	-0.17338	0	-0.026852	0	-97.2988	595.916	26.4441	0.826364	0.006	-0.321729	0	-0.645568	0
0.74	22.3783	50.6338	-0.293275	0.3326	0.006	-0.170843	0	0.056341	0	-97.0693	614.4	28.939	0.829241	0.006	-0.322675	0	-0.806055	0
0.75	15.8587	29.9781	0.306785	0.353452	0.006	-0.165761	0	0.125346	0	-95.7748	628.407	31.0564	0.832133	0.006	-0.323641	0	-0.945416	0
0.76	0	0	0	0.387891	0	-0.161944	0	0	0	-93.5285	637.848	32.7774	0.835062	0.006	-0.324636	0	-1.05786	0
0.77	0	0	0	0.417668	0	-0.164251	0	0	0	-90.4585	642.777	34.0922	0.838047	0.006	-0.325666	0	-1.13923	0
0.78	0	0	0	0.447446	0	-0.166559	0	0	0	-86.7034	643.399	34.9957	0.841108	0.006	-0.326734	0	-1.18681	0
0.79	0	0	0	0.477223	0	-0.168866	0	0	0	-82.4066	640.059	35.4886	0.844259	0.006	-0.327842	0	-1.19888	0
0.8	0	0	0	0.507	0	-0.171174	0	0	0	-77.7092	633.216	35.581	0.847516	0.006	-0.328989	0	-1.17446	0
0.81	0	0	0	0.536777	0	-0.173481	0	0	0	-72.7424	623.418	35.2966	0.850889	0.006	-0.330173	0	-1.11335	0
0.82	0	0	0	0.566554	0	-0.175789	0	0	0	-67.6244	611.261	34.6755	0.854382	0.006	-0.331389	0	-1.01632	0
0.83	0	0	0	0.596332	0	-0.178096	0	0	0	-62.4592	597.372	33.7757	0.857995	0.006	-0.332634	0	-0.885275	0
0.84	0	0	0	0.626109	0	-0.180404	0	0	0	-57.3383	582.386	32.6693	0.86172	0.006	-0.333902	0	-0.723352	0
0.85	0	0	0	0.655886	0	-0.182711	0	0	0	-52.3406	566.924	31.4377	0.865541	0.006	-0.335184	0	-0.534885	0
0.86	0	0	0	0.685663	0	-0.185019	0	0	0	-47.5311	551.574	30.1637	0.869439	0.006	-0.336469	0	-0.325066	0
0.87	0	0	0	0.71544	0	-0.187326	0	0	0	-42.9593	536.877	28.9259	0.873385	0.006	-0.337741	0	-0.099549	0
0.88	0	0	0	0.745218	0	-0.189634	0	0	0	-38.6568	523.307	27.7925	0.877349	0.006	-0.338983	0	0.136001	0
0.89	0	0	0	0.774995	0	-0.191941	0	0	0	-34.6356	511.268	26.8164	0.881296	0.006	-0.340171	0	0.376514	0
0.9	0	0	0	0.804772	0	-0.194249	0	0	0	-30.8873	501.089	26.0316	0.88519	0.006	-0.341279	0	0.618013	0
0.91	0	0	0	0.834549	0	-0.196556	0	0	0	-27.3831	493.023	25.4542	0.889	0.006	-0.342283	0	0.857885	0
0.92	0	0	0	0.864326	0	-0.198864	0	0	0	-24.0729	487.251	25.0856	0.892693	0.006	-0.343157	0	1.09494	0
0.93	0	0	0	0.894104	0	-0.201171	0	0	0	-20.8853	483.893	24.9168	0.896244	0.006	-0.34388	0	1.32904	0
0.94	0	0	0	0.923881	0	-0.203479	0	0	0	-17.7299	483.019	24.9312	0.899631	0.006	-0.344439	0	1.56062	0
0.95	0	0	0	0.953658	0	-0.205786	0	0	0	-14.5038	484.653	25.1058	0.902841	0.006	-0.344826	0	1.79042	0
0.96	0	0	0	0.983435	0	-0.208094	0	0	0	-11.0983	488.775	25.4125	0.905864	0.006	-0.345045	0	2.01931	0
0.97	0	0	0	1.01321	0	-0.210401	0	0	0	-7.40642	495.319	25.8204	0.908701	0.006	-0.345104	0	2.24801	0
0.98	0	0	0	1.04299	0	-0.212709	0	0	0	-3.32874	504.163	26.2974	0.911357	0.006	-0.34502	0	2.47657	0
0.99	0	0	0	1.07277	0	-0.215017	0	0	0	1.22085	515.123	26.8135	0.913844	0.006	-0.344817	0	2.70392	0
1	0	0	0	1.10254	0	-0.217324	0	0	0	6.31101	527.948	27.3433	0.91618	0.006	-0.34452	0	2.92751	0
1.01	0	0	0	1.13232	0	-0.219632	0	0	0	11.9896	542.318	27.8676	0.918385	0.006	-0.344157	0	3.14308	0
1.02	0	0	0	1.1621	0	-0.221939	0	0	0	18.2801	557.837	28.3721	0.92048	0.006	-0.343754	0	3.3448	0
1.03	0	0	0	1.19188	0	-0.224247	0	0	0	25.1796	574.034	28.8438	0.922484	0.006	-0.343332	0	3.52585	0
1.04	0	0	0	1.22165	0	-0.226554	0	0	0	32.6565	590.369	29.2689	0.924416	0.006	-0.342912	0	3.67897	0
1.05	0	0	0	1.25143	0	-0.228862	0	0	0	40.6495	606.235	29.6297	0.926291	0.006	-0.34251	0	3.79705	0
1.06	0	0	0	1.28121	0	-0.231169	0	0	0	49.0665	620.974	29.9044	0.928124	0.006	-0.342137	0	3.87376	0
1.07	0	0	0	1.31098	0	-0.233477	0	0	0	57.7846	633.883	30.0681	0.929925	0.006	-0.341803	0	3.90405	0
1.08	0	0	0	1.34076	0	-0.235784	0	0	0	66.6489	644.237	30.093	0.931705	0.006	-0.341511	0	3.88462	0
1.09	0	0	0	1.37054	0	-0.238092	0	0	0	75.4731	651.306	29.9473	0.933472	0.006	-0.341265	0	3.81441	0
1.1	-0.857573	26.6921	6.30464	1.39664	0.006	-0.239457	0	0.105346	0	84.0418	654.38	29.5947	0.935234	0.006	-0.341062	0	3.69532	0
1.11	-3.28891	44.1158	7.64502	1.40971	0.006	-0.239142	0	0.033714	0	92.1133	652.802	28.9945	0.936998	0.006	-0.340898	0	3.5325	0
